<svg id="Layer_1" xmlns="http://www.w3.org/2000/svg" fill="#fff" viewBox="0 0 26.11 27.06" ><path d="M9.06,2.04c-2.84,3.21-2.49,6.86.88,9.49,2.23,1.74,3.82,1.8,6.1.11,3.5-2.59,3.86-6.31,1.02-9.6,3.07.41,5.41,2.95,5.75,6,.42-.11.58-1.07.68-1.45.3-1.2.26-2.4.7-3.55,3.98,4.92,1.58,13.53-5.12,14-.15-.13,1.32-2.27-.18-2.71s-2.89,1.55-3.05,2.86c-.59,4.7,5.08,4.41,8.23,3.85-2.32,4.22-7.83,3.42-11.75,2.25.73,1.64,2.32,2.07,3.75,2.87-3.73,1.48-8.47,1.2-11.73-1.27-3.68-2.78-2.26-5.2.64-7.84,1.7,1.4,3.13,2.74,5.47,2.98.26.03,1.17.2,1.12-.24-3.7-1.45-6.07-5.22-7.5-8.75-1.75.42-2.42,1.47-3.12,3C-2.22,8.22,3.16,2.09,9.06,2.04Z"/><path d="M13.3.03l2.7,5.08c-.02.27-2.38,4.38-2.68,4.76-.19.24-.21.2-.51.16l-2.74-4.87c-.01-.28,2.4-4.56,2.72-4.97.19-.24.21-.2.51-.16Z"/></svg>
